<svg width="139" height="34" viewBox="0 0 139 34" fill="none" xmlns="http://www.w3.org/2000/svg">
<path d="M67.3797 28.6667C61.1436 28.6667 56.0693 23.5821 56.0693 17.3333C56.0693 11.0845 61.1436 6 67.3797 6C73.6158 6 78.6901 11.0845 78.6901 17.3333C78.6901 23.5821 73.6158 28.6667 67.3797 28.6667ZM67.3797 9.10765C62.853 9.10765 59.1707 12.7974 59.1707 17.3333C59.1707 21.8692 62.853 25.559 67.3797 25.559C71.9064 25.559 75.5887 21.8692 75.5887 17.3333C75.5887 12.7974 71.9064 9.10765 67.3797 9.10765Z" fill="#065FE3"></path>
<path d="M56.6509 26.0162H56.6496L56.3296 25.6981H46.3623L46.041 25.3761V18.9418L46.3623 18.6199H53.4994L53.7989 18.3198C53.7757 17.994 53.759 17.6656 53.759 17.3333C53.759 16.898 53.7847 16.4678 53.8233 16.0428L53.8194 16.0467L53.4981 15.7247H46.361L46.0397 15.4028V9.29049L46.361 8.96852H56.3296L56.327 8.96594L56.6483 8.64397L56.6522 8.64783C57.2485 7.85192 57.9207 7.11655 58.6623 6.45715L58.3423 6.13647L58.2793 6.07336H43.1504L42.8291 6.39533V28.2725L43.1504 28.5945H58.2793L58.3423 28.5314L58.6623 28.2107C57.9194 27.55 57.246 26.8146 56.6496 26.0175L56.6509 26.0162Z" fill="#065FE3"></path>
<path d="M39.0237 6.13518H36.4544L36.1344 6.45715V15.4028L35.8131 15.7247H28.0514L27.7313 15.4028V6.39405L27.41 6.07336H25.2263H24.8408H6.32132L6 6.39405V8.64655L6.32132 8.96852H13.3337L13.6551 9.29049V28.2725L13.9751 28.5932H16.5443L16.8657 28.2725V9.29049L17.187 8.96852H24.1994L24.5194 9.29049V28.2725L24.8408 28.5932H27.41L27.7313 28.2725V18.9418L28.0514 18.6199H35.8131L36.1344 18.9418V28.2725L36.4544 28.5932H39.0237L39.345 28.2725V6.45715L39.0237 6.13518Z" fill="#065FE3"></path>
<path d="M88.664 14.461C88.642 14.329 88.5907 14.175 88.51 13.999C88.4293 13.823 88.3377 13.6507 88.235 13.482C88.1397 13.3133 88.0443 13.1777 87.949 13.075C88.9097 13.0017 89.7383 12.8697 90.435 12.679C91.139 12.481 91.678 12.217 92.052 11.887C92.4333 11.557 92.613 11.15 92.591 10.666C92.547 9.632 91.7843 9.148 90.303 9.214C90.0757 9.22133 89.797 9.25067 89.467 9.302C89.137 9.346 88.7777 9.40467 88.389 9.478C88.0077 9.55133 87.6227 9.63933 87.234 9.742C86.8527 9.83733 86.4933 9.94 86.156 10.05C85.8187 10.1527 85.5327 10.2553 85.298 10.358C85.298 10.3507 85.265 10.2773 85.199 10.138C85.1403 9.99133 85.0707 9.82633 84.99 9.643C84.9167 9.45233 84.8507 9.28733 84.792 9.148C84.7333 9.00133 84.7003 8.92433 84.693 8.917C84.9203 8.873 85.2137 8.81433 85.573 8.741C85.9323 8.66033 86.3247 8.576 86.75 8.488C87.1827 8.4 87.6153 8.31933 88.048 8.246C88.4807 8.16533 88.8877 8.09933 89.269 8.048C89.6577 7.98933 89.9877 7.95633 90.259 7.949C91.1023 7.91233 91.7953 8.004 92.338 8.224C92.8807 8.43667 93.2877 8.74833 93.559 9.159C93.8377 9.56967 93.988 10.0537 94.01 10.611C94.032 11.205 93.9147 11.722 93.658 12.162C93.4087 12.5947 93.0457 12.965 92.569 13.273C92.0923 13.5737 91.5203 13.823 90.853 14.021C90.193 14.2117 89.4633 14.3583 88.664 14.461ZM100.643 15.671C100.526 15.5463 100.353 15.4107 100.126 15.264C99.906 15.1247 99.7117 15.022 99.543 14.956C100.064 14.5967 100.533 14.1493 100.951 13.614C101.376 13.0713 101.725 12.4883 101.996 11.865C101.681 11.7697 101.362 11.6927 101.039 11.634C100.716 11.568 100.401 11.5203 100.093 11.491C99.9023 11.8503 99.7043 12.1803 99.499 12.481C99.301 12.7743 99.0993 13.0237 98.894 13.229C98.586 13.5443 98.2487 13.7643 97.882 13.889C97.5227 14.0137 97.1743 14.0503 96.837 13.999C96.507 13.9403 96.2357 13.7973 96.023 13.57C95.8103 13.3427 95.704 13.0383 95.704 12.657C95.704 12.2317 95.8433 11.843 96.122 11.491C96.4007 11.139 96.804 10.8567 97.332 10.644C97.8673 10.4313 98.52 10.3177 99.29 10.303C99.488 9.885 99.6787 9.44133 99.862 8.972C100.045 8.50267 100.21 8.037 100.357 7.575C100.086 7.64833 99.7997 7.72167 99.499 7.795C99.2057 7.861 98.927 7.91967 98.663 7.971C98.4063 8.02233 98.1937 8.059 98.025 8.081L97.673 6.816C97.8637 6.80867 98.1093 6.78667 98.41 6.75C98.7107 6.71333 99.026 6.66567 99.356 6.607C99.6933 6.54833 100.009 6.486 100.302 6.42C100.603 6.354 100.841 6.288 101.017 6.222L101.941 6.717C101.816 7.23033 101.64 7.81333 101.413 8.466C101.186 9.11867 100.925 9.76033 100.632 10.391C100.911 10.4277 101.193 10.4753 101.479 10.534C101.772 10.5927 102.069 10.6623 102.37 10.743C102.436 10.4863 102.487 10.2333 102.524 9.984C102.561 9.72733 102.583 9.47433 102.59 9.225L103.899 9.544C103.862 10.0573 103.774 10.578 103.635 11.106C103.928 11.2013 104.214 11.304 104.493 11.414C104.779 11.524 105.05 11.6413 105.307 11.766C105.234 11.854 105.153 11.9713 105.065 12.118C104.977 12.2647 104.896 12.4187 104.823 12.58C104.757 12.734 104.702 12.8697 104.658 12.987C104.431 12.8623 104.196 12.7413 103.954 12.624C103.719 12.4993 103.477 12.3893 103.228 12.294C102.942 12.9613 102.579 13.592 102.139 14.186C101.699 14.7727 101.2 15.2677 100.643 15.671ZM96.859 12.503C96.8737 12.5983 96.936 12.6753 97.046 12.734C97.156 12.7853 97.2917 12.7927 97.453 12.756C97.6217 12.7193 97.8013 12.6093 97.992 12.426C98.0947 12.3233 98.2047 12.1913 98.322 12.03C98.4393 11.8687 98.5567 11.6853 98.674 11.48C98.0507 11.546 97.585 11.6817 97.277 11.887C96.969 12.085 96.8297 12.2903 96.859 12.503ZM108.2 15.506C108.039 15.4033 107.83 15.297 107.573 15.187C107.316 15.0843 107.093 15.011 106.902 14.967C107.093 14.6957 107.291 14.351 107.496 13.933C107.701 13.5077 107.907 13.0383 108.112 12.525C108.317 12.0043 108.515 11.4653 108.706 10.908C108.897 10.3433 109.069 9.78967 109.223 9.247C108.805 9.28367 108.409 9.30933 108.035 9.324C107.668 9.33867 107.364 9.33867 107.122 9.324L107.001 8.004C107.302 8.03333 107.679 8.04433 108.134 8.037C108.596 8.02967 109.073 8.004 109.564 7.96C109.659 7.57867 109.733 7.22667 109.784 6.904C109.843 6.58133 109.879 6.29533 109.894 6.046L111.269 6.233C111.24 6.44567 111.196 6.684 111.137 6.948C111.078 7.20467 111.012 7.48333 110.939 7.784C111.24 7.73267 111.522 7.67767 111.786 7.619C112.05 7.553 112.274 7.487 112.457 7.421L112.655 8.653C112.428 8.72633 112.131 8.80333 111.764 8.884C111.405 8.95733 111.012 9.02333 110.587 9.082C110.426 9.66133 110.246 10.259 110.048 10.875C109.85 11.4837 109.645 12.0777 109.432 12.657C109.219 13.2363 109.007 13.7717 108.794 14.263C108.589 14.747 108.391 15.1613 108.2 15.506ZM115.658 15.044C114.866 15.1687 114.118 15.198 113.414 15.132C112.717 15.066 112.109 14.923 111.588 14.703C111.075 14.483 110.69 14.208 110.433 13.878L111.104 12.888C111.361 13.152 111.72 13.3683 112.182 13.537C112.651 13.6983 113.198 13.7937 113.821 13.823C114.452 13.845 115.137 13.7863 115.878 13.647C115.805 13.8303 115.746 14.0613 115.702 14.34C115.665 14.6187 115.651 14.8533 115.658 15.044ZM115.328 11.15C115.086 11.0693 114.807 10.9997 114.492 10.941C114.177 10.875 113.843 10.8237 113.491 10.787C113.146 10.7503 112.805 10.7283 112.468 10.721C112.138 10.7063 111.837 10.7063 111.566 10.721L111.731 9.434C111.995 9.41933 112.303 9.423 112.655 9.445C113.014 9.45967 113.385 9.48533 113.766 9.522C114.155 9.55867 114.521 9.60633 114.866 9.665C115.218 9.71633 115.519 9.77133 115.768 9.83L115.328 11.15ZM125.107 15.429C124.344 15.341 123.67 15.121 123.083 14.769C122.496 14.4097 122.038 13.944 121.708 13.372C121.378 12.7927 121.213 12.1363 121.213 11.403C121.213 10.875 121.341 10.3397 121.598 9.797C121.855 9.247 122.232 8.75933 122.731 8.334C122.144 8.42933 121.561 8.532 120.982 8.642C120.403 8.74467 119.875 8.84367 119.398 8.939C118.929 9.03433 118.566 9.11867 118.309 9.192L118.012 7.762C118.254 7.74733 118.588 7.71433 119.013 7.663C119.446 7.61167 119.93 7.54933 120.465 7.476C121.008 7.39533 121.565 7.311 122.137 7.223C122.716 7.12767 123.274 7.03233 123.809 6.937C124.352 6.84167 124.836 6.75 125.261 6.662C125.694 6.56667 126.031 6.48233 126.273 6.409L126.625 7.751C126.515 7.75833 126.376 7.77667 126.207 7.806C126.046 7.828 125.859 7.85367 125.646 7.883C125.25 7.93433 124.865 8.059 124.491 8.257C124.124 8.455 123.794 8.71167 123.501 9.027C123.215 9.335 122.988 9.69067 122.819 10.094C122.65 10.4973 122.566 10.9337 122.566 11.403C122.566 11.9603 122.709 12.426 122.995 12.8C123.281 13.174 123.67 13.4673 124.161 13.68C124.66 13.8853 125.217 14.0247 125.833 14.098C125.723 14.2153 125.617 14.3583 125.514 14.527C125.411 14.6883 125.323 14.8497 125.25 15.011C125.177 15.1797 125.129 15.319 125.107 15.429ZM85.287 28.88C85.2577 28.6893 85.199 28.473 85.111 28.231C85.0303 27.9963 84.935 27.7947 84.825 27.626C86.3943 27.5307 87.674 27.2007 88.664 26.636C88.1947 26.4453 87.74 26.2767 87.3 26.13C86.86 25.976 86.4567 25.855 86.09 25.767C86.2147 25.5837 86.3577 25.36 86.519 25.096C86.6803 24.832 86.849 24.5423 87.025 24.227H84.528V23.072H87.641C87.8317 22.7127 88.004 22.368 88.158 22.038C88.312 21.708 88.433 21.4257 88.521 21.191L89.885 21.587C89.7897 21.7997 89.6797 22.0343 89.555 22.291C89.4377 22.5477 89.3093 22.808 89.17 23.072H94.516V24.227H92.228C91.942 25.0337 91.579 25.7193 91.139 26.284C91.645 26.5113 92.14 26.746 92.624 26.988C93.1153 27.23 93.5627 27.472 93.966 27.714C93.8267 27.8387 93.6763 28.0147 93.515 28.242C93.3537 28.4767 93.2253 28.6893 93.13 28.88C92.7047 28.6087 92.2317 28.3337 91.711 28.055C91.1977 27.7837 90.6697 27.5233 90.127 27.274C89.5403 27.714 88.8473 28.0587 88.048 28.308C87.256 28.5573 86.3357 28.748 85.287 28.88ZM84.858 22.401V19.981H88.73V18.727H90.215V19.981H94.131V22.39H92.789V21.114H86.222V22.401H84.858ZM89.819 25.734C90.2223 25.3013 90.5303 24.799 90.743 24.227H88.565C88.4623 24.4103 88.367 24.579 88.279 24.733C88.191 24.887 88.114 25.0153 88.048 25.118C88.3047 25.1913 88.5833 25.283 88.884 25.393C89.1847 25.4957 89.4963 25.6093 89.819 25.734ZM100.038 28.55C99.5687 28.55 99.2387 28.4767 99.048 28.33C98.8573 28.1907 98.762 27.9523 98.762 27.615V21.752H100.126V26.944C100.126 27.0613 100.155 27.1457 100.214 27.197C100.273 27.241 100.386 27.263 100.555 27.263H101.952C102.253 27.263 102.458 27.1677 102.568 26.977C102.685 26.7863 102.766 26.4307 102.81 25.91C102.913 25.9613 103.041 26.02 103.195 26.086C103.349 26.1447 103.507 26.1997 103.668 26.251C103.837 26.3023 103.983 26.3427 104.108 26.372C104.02 26.9733 103.91 27.4317 103.778 27.747C103.646 28.055 103.466 28.264 103.239 28.374C103.012 28.4913 102.707 28.55 102.326 28.55H100.038ZM96.276 26.57C96.1293 26.4673 95.9387 26.3537 95.704 26.229C95.4693 26.1043 95.264 26.0127 95.088 25.954C95.242 25.7633 95.407 25.525 95.583 25.239C95.759 24.9457 95.924 24.6377 96.078 24.315C96.2393 23.985 96.3823 23.666 96.507 23.358C96.6317 23.0427 96.7233 22.7677 96.782 22.533L98.058 22.984C97.9847 23.2553 97.882 23.5523 97.75 23.875C97.618 24.1977 97.4713 24.5277 97.31 24.865C97.1487 25.195 96.9763 25.5103 96.793 25.811C96.617 26.1043 96.4447 26.3573 96.276 26.57ZM104.658 25.921C104.372 25.3637 104.02 24.8247 103.602 24.304C103.184 23.7833 102.751 23.3323 102.304 22.951L103.261 22.137C103.547 22.3643 103.851 22.6503 104.174 22.995C104.497 23.3397 104.801 23.699 105.087 24.073C105.373 24.447 105.608 24.7917 105.791 25.107C105.688 25.151 105.56 25.228 105.406 25.338C105.252 25.4407 105.105 25.547 104.966 25.657C104.827 25.767 104.724 25.855 104.658 25.921ZM101.677 21.554C101.428 21.3413 101.138 21.1287 100.808 20.916C100.485 20.696 100.159 20.4907 99.829 20.3C99.499 20.1093 99.1983 19.9553 98.927 19.838L99.587 18.793C99.8803 18.9177 100.207 19.0827 100.566 19.288C100.933 19.486 101.285 19.6913 101.622 19.904C101.959 20.1167 102.234 20.311 102.447 20.487C102.366 20.575 102.271 20.6887 102.161 20.828C102.058 20.96 101.963 21.092 101.875 21.224C101.787 21.356 101.721 21.466 101.677 21.554ZM111.566 28.088C110.994 28.0587 110.536 27.8937 110.191 27.593C109.846 27.285 109.678 26.9 109.685 26.438C109.692 26.1593 109.784 25.9027 109.96 25.668C110.136 25.4333 110.385 25.2427 110.708 25.096C111.031 24.9493 111.416 24.876 111.863 24.876C111.973 24.876 112.083 24.8797 112.193 24.887C112.303 24.8943 112.409 24.9053 112.512 24.92C112.505 24.7293 112.494 24.5203 112.479 24.293C112.472 24.0583 112.461 23.8053 112.446 23.534C112.351 23.5413 112.259 23.5487 112.171 23.556C112.083 23.556 112.002 23.556 111.929 23.556C111.438 23.556 111.049 23.4753 110.763 23.314C110.477 23.1453 110.235 22.9033 110.037 22.588L110.906 21.884C111.023 22.0233 111.155 22.1333 111.302 22.214C111.449 22.2873 111.658 22.324 111.929 22.324C111.995 22.324 112.068 22.324 112.149 22.324C112.23 22.3167 112.318 22.313 112.413 22.313C112.413 22.1443 112.413 21.9647 112.413 21.774C112.413 21.5833 112.409 21.3853 112.402 21.18C112.043 21.202 111.691 21.2203 111.346 21.235C111.009 21.2423 110.719 21.2423 110.477 21.235L110.422 20.025C110.635 20.047 110.902 20.058 111.225 20.058C111.555 20.058 111.907 20.0507 112.281 20.036C112.662 20.014 113.04 19.9883 113.414 19.959C113.788 19.9297 114.136 19.8967 114.459 19.86C114.782 19.816 115.046 19.772 115.251 19.728V20.916C115.09 20.9453 114.87 20.9783 114.591 21.015C114.32 21.0443 114.015 21.0737 113.678 21.103C113.671 21.301 113.667 21.4953 113.667 21.686C113.667 21.8693 113.667 22.049 113.667 22.225C114.026 22.1883 114.382 22.1443 114.734 22.093C115.086 22.0417 115.39 21.983 115.647 21.917L115.658 23.127C115.409 23.1857 115.108 23.2443 114.756 23.303C114.411 23.3543 114.059 23.3983 113.7 23.435C113.715 23.7723 113.729 24.0877 113.744 24.381C113.766 24.6743 113.784 24.953 113.799 25.217C114.21 25.3563 114.606 25.5397 114.987 25.767C115.376 25.9943 115.753 26.2473 116.12 26.526C116.039 26.592 115.944 26.6947 115.834 26.834C115.731 26.9733 115.632 27.1163 115.537 27.263C115.449 27.4023 115.387 27.5197 115.35 27.615C114.859 27.1677 114.353 26.8083 113.832 26.537C113.781 27.109 113.557 27.5197 113.161 27.769C112.772 28.011 112.241 28.1173 111.566 28.088ZM107.562 28.264C107.511 27.9707 107.467 27.5967 107.43 27.142C107.401 26.6873 107.379 26.185 107.364 25.635C107.349 25.0777 107.346 24.5057 107.353 23.919C107.36 23.325 107.375 22.7457 107.397 22.181C107.426 21.6163 107.463 21.0957 107.507 20.619C107.558 20.1423 107.617 19.7463 107.683 19.431L108.926 19.739C108.845 19.9957 108.779 20.3403 108.728 20.773C108.677 21.1983 108.636 21.6787 108.607 22.214C108.578 22.742 108.559 23.2883 108.552 23.853C108.552 24.4177 108.559 24.9677 108.574 25.503C108.596 26.0383 108.629 26.526 108.673 26.966C108.717 27.406 108.768 27.7617 108.827 28.033L107.562 28.264ZM111.665 26.966C111.966 26.966 112.189 26.9073 112.336 26.79C112.49 26.6727 112.567 26.4563 112.567 26.141V26.053C112.303 25.9943 112.043 25.9613 111.786 25.954C111.515 25.9393 111.295 25.9797 111.126 26.075C110.965 26.1703 110.88 26.2987 110.873 26.46C110.866 26.614 110.932 26.7387 111.071 26.834C111.218 26.922 111.416 26.966 111.665 26.966ZM122.236 28.682C122.104 28.4913 121.957 28.3007 121.796 28.11C121.642 27.9267 121.47 27.7727 121.279 27.648C121.836 27.3987 122.295 27.1017 122.654 26.757C123.013 26.4123 123.281 25.9833 123.457 25.47C123.633 24.9493 123.721 24.315 123.721 23.567V22.72C123.237 22.7567 122.782 22.7897 122.357 22.819C121.939 22.841 121.624 22.852 121.411 22.852L121.235 21.532C121.499 21.5467 121.855 21.5503 122.302 21.543C122.757 21.5283 123.23 21.5063 123.721 21.477V19.222H125.019V21.367C125.386 21.3303 125.719 21.2863 126.02 21.235C126.328 21.1837 126.574 21.1323 126.757 21.081V22.412C126.588 22.4413 126.35 22.4743 126.042 22.511C125.734 22.5477 125.393 22.5843 125.019 22.621V23.567C125.019 24.8357 124.799 25.877 124.359 26.691C123.926 27.4977 123.219 28.1613 122.236 28.682ZM118.804 27.065C118.76 26.8083 118.72 26.4893 118.683 26.108C118.646 25.7193 118.617 25.294 118.595 24.832C118.573 24.37 118.558 23.8933 118.551 23.402C118.544 22.9107 118.54 22.434 118.54 21.972C118.547 21.51 118.562 21.0883 118.584 20.707C118.606 20.3257 118.635 20.0103 118.672 19.761L120.003 19.937C119.944 20.2157 119.9 20.586 119.871 21.048C119.842 21.5027 119.823 22.0013 119.816 22.544C119.816 23.0867 119.823 23.6293 119.838 24.172C119.86 24.7073 119.889 25.2023 119.926 25.657C119.97 26.1043 120.025 26.4637 120.091 26.735L118.804 27.065ZM129.991 28.264L128.737 27.714C128.81 27.5747 128.931 27.3363 129.1 26.999C129.276 26.6543 129.481 26.2473 129.716 25.778C129.951 25.3087 130.196 24.8063 130.453 24.271C130.717 23.7283 130.981 23.1893 131.245 22.654C131.516 22.1113 131.769 21.6017 132.004 21.125C132.239 20.6483 132.444 20.234 132.62 19.882C132.796 19.5227 132.924 19.2623 133.005 19.101L134.336 19.695C134.189 19.9003 133.999 20.2047 133.764 20.608C133.529 21.0113 133.273 21.4733 132.994 21.994C132.723 22.5073 132.444 23.0427 132.158 23.6C132.327 23.49 132.503 23.4057 132.686 23.347C132.869 23.281 133.053 23.248 133.236 23.248C133.764 23.248 134.134 23.3983 134.347 23.699C134.56 23.9997 134.666 24.4653 134.666 25.096C134.666 25.1913 134.662 25.327 134.655 25.503C134.648 25.6717 134.644 25.8073 134.644 25.91C134.644 26.3133 134.688 26.5773 134.776 26.702C134.864 26.8267 135.04 26.889 135.304 26.889C135.663 26.889 136.019 26.6947 136.371 26.306C136.73 25.9173 137.024 25.4077 137.251 24.777C137.376 24.9383 137.537 25.1143 137.735 25.305C137.94 25.4957 138.113 25.6423 138.252 25.745C137.871 26.581 137.398 27.2043 136.833 27.615C136.276 28.0257 135.696 28.231 135.095 28.231C134.56 28.231 134.142 28.0953 133.841 27.824C133.548 27.5527 133.401 27.054 133.401 26.328C133.401 26.2327 133.405 26.0933 133.412 25.91C133.419 25.7267 133.423 25.5763 133.423 25.459C133.423 25.0703 133.372 24.8027 133.269 24.656C133.166 24.5093 132.99 24.436 132.741 24.436C132.411 24.436 132.099 24.5533 131.806 24.788C131.52 25.0153 131.289 25.316 131.113 25.69C130.842 26.262 130.607 26.7753 130.409 27.23C130.211 27.6773 130.072 28.022 129.991 28.264Z" fill="#065FE3"></path>
</svg>